# xmcd
#
# Track frame offsets:
#	150
#	15714
#	29473
#	45211
#	63023
#	80502
#	82498
#	98000
#	112450
#	131006
#	145794
#	164300
#
# Disc length: 2387 seconds
#
# Revision: 0
# Processed by: cddbd v1.4PL0 Copyright (c) Steve Scherf et al.
# Submitted via: dBpowerAMP V4.0
#
DISCID=9d09510c
DTITLE=Terry Thompson - That'll Work
DYEAR=2003
DGENRE=Country
TTITLE0=The Stranger
TTITLE1=That'll Work
TTITLE2=Flying
TTITLE3=She Reminds Me Of You
TTITLE4=The Circus
TTITLE5=ol' Mose
TTITLE6=Ride 'em Cowboy
TTITLE7=The Cat's On The Roof
TTITLE8=Just Like Me
TTITLE9=With The Dawn
TTITLE10=When Its Done
TTITLE11=Coming Clean
EXTD=
EXTT0=
EXTT1=
EXTT2=
EXTT3=
EXTT4=
EXTT5=
EXTT6=
EXTT7=
EXTT8=
EXTT9=
EXTT10=
EXTT11=
PLAYORDER=
